<svg width="22" height="22" fill="none" xmlns="http://www.w3.org/2000/svg"><mask id="a" style="mask-type:luminance" maskUnits="userSpaceOnUse" x="0" y="0" width="22" height="22"><path fill-rule="evenodd" clip-rule="evenodd" d="M0 .001h21.999v21.865H0V.002z" fill="#fff"/></mask><g mask="url(#a)" fill-rule="evenodd" clip-rule="evenodd"><path d="M21.263 11.243c0-.758-.068-1.487-.195-2.187H10.996v4.137h5.756a4.92 4.92 0 01-2.134 3.227v2.684h3.456c2.022-1.862 3.189-4.604 3.189-7.86z" fill="#4385F6"/><path d="M10.998 21.695c2.888 0 5.309-.958 7.078-2.591L14.62 16.42c-.958.642-2.183 1.021-3.622 1.021-2.785 0-5.143-1.881-5.984-4.409H1.441v2.771a10.69 10.69 0 009.557 5.892z" fill="#34A855"/><path d="M5.015 13.033A6.43 6.43 0 014.68 11c0-.705.121-1.39.335-2.032v-2.77H1.442A10.69 10.69 0 00.305 11c0 1.725.413 3.359 1.137 4.802l3.573-2.77z" fill="#FBBD06"/><path d="M10.998 4.56c1.57 0 2.98.539 4.088 1.598l3.068-3.067C16.302 1.365 13.88.306 10.998.306a10.69 10.69 0 00-9.557 5.891l3.573 2.771C5.855 6.44 8.213 4.56 10.998 4.56z" fill="#EA4235"/></g></svg>