<svg width="320" height="220" fill="none" xmlns="http://www.w3.org/2000/svg"><g opacity=".1" fill="#DAD3FF"><path d="M58.414-58.917C58.414-114.687 103.953-160 160-160s101.587 45.313 101.587 101.083V.339h-58.383v-59.256c0-23.702-19.383-42.989-43.204-42.989-23.82 0-43.204 19.287-43.204 42.989V.339H58.414v-59.256z"/><path d="M261.606.339v59.589c0 56.083-45.548 101.651-101.606 101.651-56.058 0-101.606-45.568-101.606-101.651V.338H0v59.59C0 148.259 71.708 220 160 220s160-71.741 160-160.072V.338h-58.394z"/><path d="M116.825.339h86.349v59.785c0 23.915-19.37 43.374-43.175 43.374-23.804 0-43.174-19.46-43.174-43.374V.34z"/></g></svg>