<svg width="682" height="472" fill="none" xmlns="http://www.w3.org/2000/svg"><path opacity=".1" fill-rule="evenodd" clip-rule="evenodd" d="M668.752.236A16.107 16.107 0 00665.998 0h-56.383v.236h59.137zM350.392 0H175.241v.236h175.151V0zm331.606 364.299V456c0 8.837-7.163 16-16 16H150.117C57.695 393.686 0 282.879 0 160.131V.236h175.182v159.895c0 150.49 136.643 272.762 304.818 272.762 77.439 0 148.193-25.925 201.998-68.594zM609.522.236H350.474v160.423c0 64.169 58.111 116.386 129.524 116.386 71.413 0 129.524-52.217 129.524-116.386V.236z" fill="#fff"/></svg>