<svg width="320" height="180" fill="none" xmlns="http://www.w3.org/2000/svg"><g opacity=".1" fill="#DAD3FF"><path d="M58.414-98.917C58.414-154.687 103.953-200 160-200s101.587 45.313 101.587 101.083v59.256h-58.383v-59.256c0-23.702-19.383-42.989-43.204-42.989-23.82 0-43.204 19.287-43.204 42.989v59.256H58.414v-59.256z"/><path d="M261.606-39.661v59.589c0 56.083-45.548 101.651-101.606 101.651-56.058 0-101.606-45.568-101.606-101.651v-59.59H0v59.59C0 108.259 71.708 180 160 180s160-71.741 160-160.072v-59.59h-58.394z"/><path d="M116.825-39.661h86.349v59.785c0 23.915-19.37 43.374-43.175 43.374-23.804 0-43.174-19.46-43.174-43.374V-39.66z"/></g></svg>