<svg width="320" height="180" viewBox="0 0 320 180" fill="none" xmlns="http://www.w3.org/2000/svg">
<g opacity="0.1">
<path d="M58.4138 -98.917C58.4138 -154.687 103.953 -200 160.001 -200C216.049 -200 261.588 -154.687 261.588 -98.917V-39.6615H203.205V-98.917C203.205 -122.619 183.822 -141.906 160.001 -141.906C136.181 -141.906 116.797 -122.619 116.797 -98.917V-39.6615H58.4138V-98.917Z" fill="#DAD3FF"/>
<path d="M261.606 -39.6615V19.9276C261.606 76.0114 216.058 121.579 160 121.579C103.942 121.579 58.3942 76.0114 58.3942 19.9276V-39.6615H0V19.9276C0 108.259 71.708 180 160 180C248.292 180 320 108.259 320 19.9276V-39.6615H261.606Z" fill="#DAD3FF"/>
<path d="M116.825 -39.6615H203.174V20.1244C203.174 44.0387 183.804 63.4984 159.999 63.4984C136.195 63.4984 116.825 44.0387 116.825 20.1244V-39.6615Z" fill="#DAD3FF"/>
</g>
</svg>
