<svg width="22" height="26" fill="none" xmlns="http://www.w3.org/2000/svg"><path d="M21.997 24.116v-.015L20.6 7.226a1.917 1.917 0 00-1.92-1.792h-1.876C16.63 2.407 14.093 0 10.995 0 7.9 0 5.36 2.407 5.19 5.434H3.317c-1.02 0-1.86.787-1.921 1.792L.002 24.091v.025A1.794 1.794 0 001.805 26h18.39a1.83 1.83 0 001.31-.559c.334-.355.518-.837.492-1.325zM10.995 1.828c2.08 0 3.785 1.59 3.954 3.606H7.04c.17-2.016 1.88-3.606 3.955-3.606zM1.846 24.172L3.24 7.363v-.025c0-.04.036-.076.082-.076h15.361c.041 0 .077.03.082.076v.015l1.383 16.819H1.846z" fill="#000"/></svg>